<svg width="187.551" height="28.86" viewBox="0 0 187.551 28.86" xmlns="http://www.w3.org/2000/svg"><g id="svgGroup" stroke-linecap="round" fill-rule="evenodd" font-size="9pt" stroke="#000" stroke-width="0.25mm" fill="#000000" style="stroke:#000;stroke-width:0.25mm;fill:#000000"><path d="M 4.095 28.392 L 0 28.392 L 0.39 25.272 L 0.39 1.092 L 6.045 1.092 L 13.65 21.879 L 14.235 24.297 L 14.547 24.297 L 15.132 21.879 L 22.737 1.092 L 28.392 1.092 L 28.392 25.272 L 28.782 28.392 L 24.687 28.392 L 25.077 25.272 L 25.077 4.329 L 24.609 4.329 L 23.439 8.736 L 16.146 28.002 L 12.636 28.002 L 5.343 8.736 L 4.173 4.329 L 3.705 4.329 L 3.705 25.272 L 4.095 28.392 Z M 109.161 5.577 L 108.771 5.577 L 108.069 8.931 L 102.492 28.392 L 98.904 28.392 L 91.884 1.092 L 95.706 1.092 L 96.057 3.354 L 100.23 20.904 L 100.62 24.414 L 101.01 24.414 L 101.478 20.904 L 107.094 1.482 L 110.76 1.482 L 116.415 20.904 L 116.883 24.414 L 117.273 24.414 L 117.663 20.904 L 121.797 3.354 L 122.148 1.092 L 125.97 1.092 L 118.989 28.392 L 115.401 28.392 L 109.824 8.931 L 109.161 5.577 Z M 187.278 19.539 L 172.107 19.539 L 172.107 18.837 L 175.617 16.887 L 184.236 16.887 A 14.22 14.22 0 0 0 184.155 15.327 Q 184.065 14.518 183.878 13.812 A 8.725 8.725 0 0 0 183.866 13.767 A 4.123 4.123 0 0 0 183.282 12.486 A 3.677 3.677 0 0 0 182.442 11.622 A 3.461 3.461 0 0 0 181.431 11.119 Q 180.96 10.967 180.385 10.899 A 8.661 8.661 0 0 0 179.361 10.842 Q 177.796 10.842 176.716 11.348 A 3.952 3.952 0 0 0 176.027 11.759 Q 174.798 12.675 174.272 14.313 A 10.446 10.446 0 0 0 173.879 16.073 Q 173.762 16.914 173.747 17.862 A 17.697 17.697 0 0 0 173.745 18.135 A 19.102 19.102 0 0 0 173.811 19.776 Q 173.942 21.285 174.33 22.347 Q 174.783 23.586 175.471 24.333 A 3.771 3.771 0 0 0 175.89 24.726 Q 176.865 25.506 178.035 25.779 Q 179.205 26.052 180.375 26.052 A 15.295 15.295 0 0 0 181.835 25.986 Q 182.776 25.896 183.554 25.682 Q 184.899 25.311 185.952 24.687 L 186.576 25.077 L 186.576 27.885 A 16.188 16.188 0 0 1 185.051 28.339 A 20.231 20.231 0 0 1 183.905 28.587 A 15.997 15.997 0 0 1 181.981 28.821 A 19.854 19.854 0 0 1 180.726 28.86 Q 178.854 28.86 177.002 28.412 Q 175.149 27.963 173.667 26.832 A 7.073 7.073 0 0 1 172.06 25.087 A 9.536 9.536 0 0 1 171.288 23.653 A 9.538 9.538 0 0 1 170.707 21.8 Q 170.51 20.867 170.435 19.775 A 20.201 20.201 0 0 1 170.391 18.408 A 19.188 19.188 0 0 1 170.527 16.044 Q 170.807 13.798 171.659 12.266 Q 172.926 9.984 174.993 9.009 Q 177.06 8.034 179.4 8.034 A 11.171 11.171 0 0 1 181.405 8.204 Q 182.571 8.417 183.52 8.896 A 6.594 6.594 0 0 1 183.905 9.106 Q 185.718 10.179 186.635 12.148 Q 187.521 14.053 187.55 16.669 A 16.041 16.041 0 0 1 187.551 16.848 A 13.722 13.722 0 0 1 187.526 17.688 A 10.858 10.858 0 0 1 187.473 18.291 A 16.796 16.796 0 0 1 187.36 19.089 A 14.182 14.182 0 0 1 187.278 19.539 Z M 159.939 28.392 L 156.039 28.392 L 148.707 8.502 L 152.607 8.502 L 153.465 11.622 L 157.677 24.453 L 157.872 26.286 L 158.106 26.286 L 158.301 24.453 L 162.513 11.622 L 163.371 8.502 L 167.271 8.502 L 159.939 28.392 Z M 82.758 8.697 L 86.58 11.31 L 86.58 13.65 Q 85.878 12.831 84.961 12.207 A 7.639 7.639 0 0 0 83.444 11.414 A 9.014 9.014 0 0 0 82.875 11.212 Q 81.705 10.842 80.145 10.842 Q 78.464 10.842 77.268 11.327 A 4.843 4.843 0 0 0 76.596 11.661 A 4.552 4.552 0 0 0 74.929 13.429 A 6.019 6.019 0 0 0 74.588 14.176 A 8.872 8.872 0 0 0 74.171 15.7 Q 74.029 16.462 73.976 17.344 A 18.356 18.356 0 0 0 73.944 18.447 A 15.652 15.652 0 0 0 74.073 20.528 Q 74.214 21.574 74.508 22.423 A 6.075 6.075 0 0 0 75.407 24.141 A 4.52 4.52 0 0 0 77.611 25.673 Q 78.38 25.934 79.326 26.015 A 10.468 10.468 0 0 0 80.223 26.052 Q 81.822 26.052 82.875 25.662 A 6.486 6.486 0 0 0 83.767 25.257 A 4.706 4.706 0 0 0 84.611 24.668 A 5.417 5.417 0 0 0 85.314 23.92 A 4.489 4.489 0 0 0 85.683 23.361 L 85.995 25.701 L 82.641 28.392 A 16.933 16.933 0 0 1 81.385 28.67 A 19.111 19.111 0 0 1 81.081 28.724 A 10.202 10.202 0 0 1 79.699 28.855 A 11.507 11.507 0 0 1 79.365 28.86 A 8.835 8.835 0 0 1 76.375 28.364 A 8.132 8.132 0 0 1 74.88 27.651 Q 72.891 26.442 71.741 24.102 A 10.69 10.69 0 0 1 70.86 21.43 Q 70.624 20.225 70.594 18.845 A 18.601 18.601 0 0 1 70.59 18.447 A 16.863 16.863 0 0 1 70.76 15.982 Q 70.955 14.665 71.373 13.568 A 8.975 8.975 0 0 1 71.799 12.616 A 9.397 9.397 0 0 1 73.124 10.675 A 7.484 7.484 0 0 1 74.977 9.165 Q 76.947 8.034 79.209 8.034 A 10.233 10.233 0 0 1 80.266 8.086 A 7.521 7.521 0 0 1 81.237 8.249 Q 81.924 8.413 82.451 8.588 A 8.852 8.852 0 0 1 82.758 8.697 Z M 65.91 28.392 L 61.854 28.392 L 62.244 25.272 L 62.244 15.327 A 6.08 6.08 0 0 0 62.126 14.089 Q 61.968 13.328 61.597 12.752 A 3.279 3.279 0 0 0 61.035 12.09 A 3.824 3.824 0 0 0 59.672 11.315 Q 58.729 10.998 57.447 10.998 A 10.754 10.754 0 0 0 56.016 11.088 Q 55.281 11.187 54.655 11.394 A 6.054 6.054 0 0 0 54.249 11.544 Q 53.126 12.006 52.353 12.567 A 6.018 6.018 0 0 0 52.084 12.772 Q 51.307 13.406 50.881 13.854 A 5.53 5.53 0 0 0 50.817 13.923 L 50.817 11.661 L 55.029 8.463 Q 55.809 8.268 56.628 8.151 Q 57.447 8.034 58.305 8.034 A 9.643 9.643 0 0 1 61.297 8.492 A 9.043 9.043 0 0 1 61.815 8.677 A 5.592 5.592 0 0 1 64.388 10.737 A 6.824 6.824 0 0 1 64.486 10.881 A 5.528 5.528 0 0 1 65.173 12.408 Q 65.52 13.606 65.52 15.21 L 65.52 25.272 L 65.91 28.392 Z M 140.166 16.536 L 142.194 17.979 L 142.194 19.773 Q 141.18 19.227 140.03 19.013 A 12.035 12.035 0 0 0 138.837 18.855 Q 138.246 18.805 137.587 18.799 A 20.037 20.037 0 0 0 137.397 18.798 Q 134.667 18.798 133.244 19.598 A 2.614 2.614 0 0 0 132.004 21.19 Q 131.86 21.664 131.829 22.246 A 6.22 6.22 0 0 0 131.82 22.581 A 4.841 4.841 0 0 0 131.923 23.613 Q 132.062 24.252 132.392 24.727 A 2.638 2.638 0 0 0 132.873 25.252 Q 133.926 26.13 136.266 26.13 A 12.213 12.213 0 0 0 137.746 26.046 Q 138.492 25.955 139.112 25.764 A 5.324 5.324 0 0 0 140.108 25.35 Q 141.531 24.57 142.311 23.478 L 143.091 25.233 L 139.347 28.392 A 17.038 17.038 0 0 1 138.326 28.613 A 20.419 20.419 0 0 1 137.67 28.724 Q 136.773 28.86 135.837 28.86 Q 134.121 28.86 132.444 28.295 Q 130.767 27.729 129.656 26.345 Q 128.7 25.155 128.566 23.202 A 9.617 9.617 0 0 1 128.544 22.542 A 8.302 8.302 0 0 1 128.643 21.226 Q 128.807 20.202 129.246 19.422 Q 129.948 18.174 131.138 17.472 A 8.199 8.199 0 0 1 133.264 16.602 A 9.59 9.59 0 0 1 133.809 16.478 Q 135.291 16.185 136.851 16.185 A 19.824 19.824 0 0 1 137.861 16.21 A 15.752 15.752 0 0 1 138.587 16.263 Q 139.386 16.341 140.166 16.536 Z M 145.509 28.392 L 142.428 28.392 L 141.843 26.325 L 141.843 15.717 Q 141.843 14.157 141.414 13.085 A 2.865 2.865 0 0 0 140.406 11.817 A 4.086 4.086 0 0 0 139.737 11.427 A 4.88 4.88 0 0 0 138.839 11.119 Q 137.721 10.842 136.032 10.842 A 13.398 13.398 0 0 0 134.394 10.938 A 10.917 10.917 0 0 0 133.361 11.115 A 7.003 7.003 0 0 0 131.25 11.973 A 8.05 8.05 0 0 0 131.001 12.129 L 130.377 11.739 L 130.377 8.931 A 19.565 19.565 0 0 1 132.14 8.455 A 15.034 15.034 0 0 1 133.594 8.209 Q 135.096 8.034 136.383 8.034 Q 139.737 8.034 141.624 8.911 A 6.078 6.078 0 0 1 141.667 8.931 A 5.894 5.894 0 0 1 143.197 9.956 A 4.999 4.999 0 0 1 144.339 11.563 Q 145.015 13.068 145.105 15.174 A 15.472 15.472 0 0 1 145.119 15.834 L 145.119 25.272 L 145.509 28.392 Z M 88.842 28.392 L 85.761 28.392 L 85.176 26.364 L 85.176 3.12 L 84.786 0 L 88.842 0 L 88.452 3.12 L 88.452 25.272 L 88.842 28.392 Z M 41.964 28.392 L 37.908 28.392 L 38.298 25.272 L 38.298 11.154 L 34.242 11.154 L 34.242 8.502 L 41.964 8.502 L 41.574 11.622 L 41.574 25.272 L 41.964 28.392 Z M 52.338 28.392 L 48.282 28.392 L 48.672 25.272 L 48.672 11.544 L 48.282 8.502 L 51.402 8.502 L 51.948 10.803 L 51.948 25.272 L 52.338 28.392 Z M 39.312 5.226 Q 38.376 5.226 37.713 4.622 A 1.99 1.99 0 0 1 37.089 3.448 A 2.885 2.885 0 0 1 37.05 2.964 A 2.691 2.691 0 0 1 37.139 2.251 A 1.947 1.947 0 0 1 37.713 1.306 Q 38.376 0.702 39.312 0.702 Q 40.248 0.702 40.911 1.307 A 1.99 1.99 0 0 1 41.535 2.48 A 2.885 2.885 0 0 1 41.574 2.964 A 2.691 2.691 0 0 1 41.485 3.677 A 1.947 1.947 0 0 1 40.911 4.622 Q 40.248 5.226 39.312 5.226 Z"/></g></svg>